:version 1.10
:name ASF
:units
  mass 1
  length 1
  angle deg
:documentation
  ASF file generated by Kaydara
:root
  axis xyz
  order  tx ty tz rx ry rz
  position 0 0 0
  orientation 0 0 0
:bonedata
  begin
    id 1
    name RightUpLegDummy
    direction -0.718183 -0.695806 0.00816078
    length 4.904
    axis 0 0 0 xyz
  end
  begin
    id 2
    name RightUpLeg
    direction 3.53989e-006 -0.995788 0.0916897
    length 17.4976
    axis -3.49089 -0.000906621 0.000287158 xyz
    dof rx ry rz
  end
  begin
    id 3
    name RightLeg
    direction 0.00371093 -0.995096 -0.0988418
    length 16.5821
    axis 3.68512 0.0193738 -0.131023 xyz
    dof rx ry rz
  end
  begin
    id 4
    name RightFoot
    direction 0.000791514 -0.46099 0.887405
    length 3.77069
    axis 4.84075e-005 -0.120479 -0.188788 xyz
    dof rx ry rz
  end
  begin
    id 5
    name RightToes
    direction 0.00124746 -0.014064 0.9999
    length 3.85082
    axis 0.00048216 0.542163 -0.142577 xyz
    dof rx ry rz
  end
  begin
    id 6
    name SpineDummy
    direction 8.36599e-015 1 5.97571e-016
    length 4.6813
    axis 0 0 0 xyz
  end
  begin
    id 7
    name Spine
    direction -4.63632e-008 0.999988 0.00495137
    length 10.1015
    axis -0.00138897 0.000121419 3.25764e-006 xyz
    dof rx ry rz
  end
  begin
    id 8
    name Spine1
    direction 0 0 0
    length 0
    axis -0.00138896 0.000121452 2.39764e-006 xyz
    dof rx ry rz
  end
  begin
    id 9
    name HEadDummy
    direction -3.91456e-008 0.999999 0.00127422
    length 3.43865
    axis -0.00138896 0.000121452 2.39764e-006 xyz
  end
  begin
    id 10
    name HEad
    direction -0.0222688 0.980941 0.193023
    length 5.12695
    axis -0.00138895 0.000121452 2.39764e-006 xyz
    dof rx ry rz
  end
  begin
    id 11
    name LeftShoulder1Dummy
    direction 0.998891 -0.0402508 -0.0244456
    length 3.5433
    axis -0.00138896 0.000121452 2.39764e-006 xyz
  end
  begin
    id 12
    name LeftShoulder1
    direction 0.99951 -0.000327743 0.0313091
    length 4.05031
    axis -0.00138896 0.000121452 2.39764e-006 xyz
    dof rx ry rz
  end
  begin
    id 13
    name LeftArm
    direction 0.998561 -0.00100054 -0.0536182
    length 10.3537
    axis -23.1894 0.134784 0.96751 xyz
    dof rx ry rz
  end
  begin
    id 14
    name LeftForeArm
    direction 0.998903 0.00866434 0.046012
    length 8.70632
    axis -9.91835 -0.06569 -0.177792 xyz
    dof rx ry rz
  end
  begin
    id 15
    name LeftHand
    direction 0.992938 -0.0411636 0.11126
    length 5.32135
    axis -0.00960227 -0.00340091 0.185174 xyz
    dof rx ry rz
  end
  begin
    id 16
    name RightShoulderDummy
    direction -0.998891 -0.0402509 -0.0244414
    length 3.5433
    axis -0.00138896 0.000121452 2.39764e-006 xyz
  end
  begin
    id 17
    name RightShoulder
    direction -0.99951 -0.000327827 0.0313133
    length 4.05031
    axis 0.215806 0.000203644 -0.00680151 xyz
    dof rx ry rz
  end
  begin
    id 18
    name RightArm
    direction -0.998573 -0.000999583 -0.053403
    length 10.3947
    axis -23.2009 -0.134239 -0.9641 xyz
    dof rx ry rz
  end
  begin
    id 19
    name RightForeArm
    direction -0.998898 0.00868026 0.0461306
    length 8.68355
    axis -9.92322 0.0658061 0.178869 xyz
    dof rx ry rz
  end
  begin
    id 20
    name RightHand
    direction -0.992843 -0.0414603 0.112003
    length 5.28593
    axis -0.00960634 0.00330671 -0.185226 xyz
    dof rx ry rz
  end
  begin
    id 21
    name LeftUpLegDummy
    direction 0.718183 -0.695806 0.00816078
    length 4.904
    axis 0 0 0 xyz
  end
  begin
    id 22
    name LeftUpLeg
    direction -6.8115e-006 -0.995793 0.0916336
    length 17.4976
    axis -3.48766 0.00143441 -0.000523914 xyz
    dof rx ry rz
  end
  begin
    id 23
    name LeftLeg
    direction -0.00601357 -0.995091 -0.0987824
    length 16.5821
    axis 3.68177 -0.00654038 -0.00028478 xyz
    dof rx ry rz
  end
  begin
    id 24
    name LeftFoot
    direction -0.00417578 -0.460984 0.887399
    length 3.77069
    axis 1.87232e-006 4.66002e-005 -8.1837e-006 xyz
    dof rx ry rz
  end
  begin
    id 25
    name LeftToes
    direction 0.00818058 -0.00485161 0.999955
    length 3.85048
    axis 1.06246e-005 4.65855e-005 -8.18502e-006 xyz
    dof rx ry rz
  end
:hierarchy
  begin
    root RightUpLegDummy SpineDummy LeftUpLegDummy
    RightUpLegDummy RightUpLeg
    RightUpLeg RightLeg
    RightLeg RightFoot
    RightFoot RightToes
    SpineDummy Spine
    Spine Spine1
    Spine1 HEadDummy LeftShoulder1Dummy RightShoulderDummy
    HEadDummy HEad
    LeftShoulder1Dummy LeftShoulder1
    LeftShoulder1 LeftArm
    LeftArm LeftForeArm
    LeftForeArm LeftHand
    RightShoulderDummy RightShoulder
    RightShoulder RightArm
    RightArm RightForeArm
    RightForeArm RightHand
    LeftUpLegDummy LeftUpLeg
    LeftUpLeg LeftLeg
    LeftLeg LeftFoot
    LeftFoot LeftToes
  end

:SAMPLES-PER-SECOND 30
:FULLY-SPECIFIED
:DEGREES
1
root  12.384 39.6794 1.57422 15.512 -85.5182 -19.2944
RightUpLeg  4.11694 -10.42 -12.8502
RightLeg  0.315429 -10.9128 -0.990121
RightFoot  6.61804 -2.48912 15.9663
RightToes  -5.28226e-011 1.30204e-014 -6.03759e-014
Spine  5.4588 -1.03331 1.59826
Spine1  0.739444 -1.17371 0.950028
HEad  0.365859 -15.6129 -0.381409
LeftShoulder1  2.53184 -5.7286 -21.0437
LeftArm  5.85112 11.5557 -53.3042
LeftForeArm  7.81384 -8.68825 -14.0214
LeftHand  -0.447427 0.211069 10.0839
RightShoulder  1.65149 2.97569 19.0614
RightArm  4.2412 -8.04754 54.8902
RightForeArm  23.5429 5.87776 14.9327
RightHand  -0.254527 -3.41369 -14.3662
LeftUpLeg  4.44945 13.7183 17.6785
LeftLeg  1.75293 2.30538 1.99937
LeftFoot  2.80672 2.28285 -18.3845
LeftToes  -2.75829e-010 5.07641e-011 -5.51782e-011
2
root  12.3871 39.6794 1.5772 15.1366 -85.5352 -18.8231
RightUpLeg  4.04246 -10.4451 -12.8891
RightLeg  0.252334 -10.8968 -0.960186
RightFoot  6.61126 -2.48756 15.9414
RightToes  -5.28226e-011 1.30204e-014 -6.03759e-014
Spine  5.34392 -1.02689 1.5625
Spine1  0.875218 -1.17249 0.945715
HEad  0.270177 -15.433 -0.343914
LeftShoulder1  2.52309 -5.70908 -21.0043
LeftArm  5.95551 11.6321 -53.4073
LeftForeArm  7.70727 -8.78721 -13.9877
LeftHand  -0.440188 0.334163 10.1512
RightShoulder  1.64203 2.9276 19.109
RightArm  4.17084 -8.01457 54.862
RightForeArm  23.5084 5.84469 14.9394
RightHand  -0.240817 -3.52154 -14.3179
LeftUpLeg  4.35765 13.6823 17.5968
LeftLeg  1.73034 2.37833 1.99985
LeftFoot  2.8136 2.28503 -18.4049
LeftToes  -2.75829e-010 5.07641e-011 -5.51782e-011
3
root  12.3939 39.6794 1.58272 14.8985 -85.5758 -18.412
RightUpLeg  3.85308 -10.4585 -12.9095
RightLeg  0.214351 -10.8973 -0.942639
RightFoot  6.64346 -2.48803 15.9161
RightToes  -5.28226e-011 1.30204e-014 -6.03759e-014
Spine  5.18361 -1.00484 1.52994
Spine1  1.02961 -1.16315 0.979856
HEad  0.176763 -15.0975 -0.350137
LeftShoulder1  2.5113 -5.65777 -21.0305
LeftArm  6.19133 11.8153 -53.4937
LeftForeArm  7.44324 -9.02069 -13.9037
LeftHand  -0.421303 0.533646 10.0957
RightShoulder  1.62772 2.86529 19.1367
RightArm  3.7317 -7.97935 54.7919
RightForeArm  24.0047 5.62792 14.956
RightHand  -0.211778 -3.73383 -14.0645
LeftUpLeg  4.19106 13.6419 17.4837
LeftLeg  1.69342 2.52033 1.99443
LeftFoot  2.84429 2.2872 -18.3881
LeftToes  -2.75829e-010 5.07641e-011 -5.51782e-011
4
root  12.4001 39.6794 1.58838 14.8185 -85.6206 -18.1894
RightUpLeg  3.6759 -10.4555 -12.9138
RightLeg  0.205304 -10.9061 -0.945373
RightFoot  6.7081 -2.49702 15.9209
RightToes  -5.28226e-011 1.30204e-014 -6.03759e-014
Spine  5.08665 -0.957842 1.49854
Spine1  1.1018 -1.13732 1.07873
HEad  0.163122 -14.7629 -0.45541
LeftShoulder1  2.51188 -5.61341 -21.1794
LeftArm  6.43025 12.0058 -53.4429
LeftForeArm  7.21607 -9.24596 -13.8184
LeftHand  -0.414581 0.550795 9.96864
RightShoulder  1.60437 2.7966 19.0378
RightArm  3.18608 -8.01766 54.7667
RightForeArm  24.6218 5.32718 14.9869
RightHand  -0.190411 -3.90166 -13.9433
LeftUpLeg  4.0607 13.6293 17.4072
LeftLeg  1.65942 2.63837 1.96734
LeftFoot  2.89459 2.2858 -18.33
LeftToes  -2.75829e-010 5.07641e-011 -5.51782e-011
5
root  12.4032 39.6787 1.59368 14.5244 -85.6466 -17.8256
RightUpLeg  3.61068 -10.4649 -12.9457
RightLeg  0.164571 -10.8941 -0.938169
RightFoot  6.74617 -2.50726 15.9521
RightToes  -5.28226e-011 1.30204e-014 -6.03759e-014
Spine  5.05074 -0.89929 1.45495
Spine1  1.1481 -1.10205 1.19521
HEad  0.180669 -14.4925 -0.585984
LeftShoulder1  2.52053 -5.59414 -21.3428
LeftArm  6.52776 12.1212 -53.34
LeftForeArm  7.09857 -9.34687 -13.7792
LeftHand  -0.421474 0.469426 9.97393
RightShoulder  1.57587 2.72159 18.8754
RightArm  2.83899 -8.16507 54.7881
RightForeArm  24.7165 5.16247 15.0091
RightHand  -0.190425 -3.93336 -14.2439
LeftUpLeg  4.00296 13.6244 17.3575
LeftLeg  1.64189 2.68575 1.93476
LeftFoot  2.9298 2.28576 -18.2997
LeftToes  -2.75829e-010 5.07641e-011 -5.51782e-011
6
root  12.4062 39.6758 1.59811 14.2417 -85.659 -17.4878
RightUpLeg  3.57824 -10.4759 -12.9748
RightLeg  0.10835 -10.8825 -0.925052
RightFoot  6.74031 -2.51029 15.9757
RightToes  -5.28226e-011 1.30204e-014 -6.03759e-014
Spine  4.99307 -0.849984 1.43494
Spine1  1.25321 -1.067 1.26168
HEad  0.150945 -14.2285 -0.656616
LeftShoulder1  2.51915 -5.56898 -21.4084
LeftArm  6.44907 12.1555 -53.3067
LeftForeArm  6.92996 -9.34423 -13.7819
LeftHand  -0.41356 0.643298 10.131
RightShoulder  1.56045 2.67617 18.807
RightArm  2.53687 -8.35734 54.7395
RightForeArm  24.5575 5.14569 14.9911
RightHand  -0.209542 -3.81459 -14.6277
LeftUpLeg  3.94229 13.6129 17.3139
LeftLeg  1.65507 2.70503 1.92124
LeftFoot  2.9274 2.28828 -18.316
LeftToes  -2.75829e-010 5.07641e-011 -5.51782e-011
7
root  12.4127 39.6742 1.60036 14.4296 -85.6766 -17.5862
RightUpLeg  3.46935 -10.4548 -12.9442
RightLeg  0.0985336 -10.9108 -0.935929
RightFoot  6.73578 -2.50879 15.9715
RightToes  -5.28226e-011 1.30204e-014 -6.03759e-014
Spine  4.87042 -0.814048 1.46106
Spine1  1.42416 -1.03732 1.28417
HEad  0.0571298 -13.8849 -0.708493
LeftShoulder1  2.5059 -5.51619 -21.4249
LeftArm  6.28807 12.134 -53.2957
LeftForeArm  6.61205 -9.32847 -13.7886
LeftHand  -0.381604 1.07385 10.2295
RightShoulder  1.56183 2.67122 18.8532
RightArm  2.03492 -8.47577 54.5728
RightForeArm  24.824 5.08627 14.9452
RightHand  -0.236123 -3.59393 -14.5933
LeftUpLeg  3.82139 13.6199 17.2937
LeftLeg  1.70387 2.73622 1.91248
LeftFoot  2.90655 2.28981 -18.3203
LeftToes  -2.75829e-010 5.07641e-011 -5.51782e-011
8
root  12.4199 39.6739 1.60066 14.8036 -85.6897 -17.8868
RightUpLeg  3.35192 -10.4175 -12.8899
RightLeg  0.12529 -10.9591 -0.963311
RightFoot  6.75915 -2.50795 15.9609
RightToes  -5.28226e-011 1.30204e-014 -6.03759e-014
Spine  4.752 -0.790251 1.48076
Spine1  1.59584 -1.02527 1.33235
HEad  -0.0395757 -13.4459 -0.838725
LeftShoulder1  2.49744 -5.46052 -21.5081
LeftArm  6.12228 12.0802 -53.1871
LeftForeArm  6.38552 -9.32446 -13.7802
LeftHand  -0.360835 1.26445 10.0966
RightShoulder  1.56112 2.66201 18.8817
RightArm  1.51005 -8.48403 54.3962
RightForeArm  25.4302 4.91871 14.9181
RightHand  -0.254397 -3.39527 -14.2229
LeftUpLeg  3.70768 13.6527 17.3072
LeftLeg  1.7659 2.74837 1.88484
LeftFoot  2.89719 2.28859 -18.2835
LeftToes  -2.75829e-010 5.07641e-011 -5.51782e-011
9
root  12.4228 39.6744 1.60046 14.7367 -85.6766 -17.8218
RightUpLeg  3.35102 -10.4101 -12.8882
RightLeg  0.124435 -10.9767 -0.970118
RightFoot  6.78092 -2.50825 15.9652
RightToes  -5.28226e-011 1.30204e-014 -6.03759e-014
Spine  4.7239 -0.787168 1.44024
Spine1  1.69853 -1.04333 1.42566
HEad  -0.0577849 -12.9441 -1.03215
LeftShoulder1  2.49767 -5.4236 -21.6332
LeftArm  5.91559 12.0349 -53.0179
LeftForeArm  6.57946 -9.28569 -13.7663
LeftHand  -0.379363 0.90029 9.79842
RightShoulder  1.54975 2.62967 18.823
RightArm  1.30649 -8.47864 54.3162
RightForeArm  25.6947 4.81296 14.9187
RightHand  -0.254608 -3.36001 -13.9899
LeftUpLeg  3.68655 13.668 17.3185
LeftLeg  1.796 2.71809 1.86134
LeftFoot  2.90575 2.2874 -18.2501
LeftToes  -2.75829e-010 5.07641e-011 -5.51782e-011
